<?xml version='1.0' encoding='utf-8'?>
<svg xmlns:xlink="http://www.w3.org/1999/xlink" xmlns="http://www.w3.org/2000/svg" width="1920" height="1080" viewBox="0 0 508.00001 285.74999" version="1.1" id="svg8" style="enable-background:new"> <defs id="defs2"> <linearGradient id="linearGradient1271"> <stop style="stop-color:#21231d;stop-opacity:1" offset="0" id="stop1267"/> <stop id="stop1275" offset="0.30943295" style="stop-color:#2144d1;stop-opacity:1"/> <stop style="stop-color:#d5e5ff;stop-opacity:0.88235295" offset="1" id="stop1269"/> </linearGradient> <linearGradient id="linearGradient943"> <stop style="stop-color:#101825;stop-opacity:0.90954775" offset="0" id="stop939"/> <stop style="stop-color:#193463;stop-opacity:1" offset="1" id="stop941"/> </linearGradient> <linearGradient id="linearGradient935"> <stop style="stop-color:#00002d;stop-opacity:1;" offset="0" id="stop931"/> <stop id="stop2400" offset="0.78567147" style="stop-color:#354b9c;stop-opacity:1"/> <stop style="stop-color:#5969a1;stop-opacity:1" offset="1" id="stop933"/> </linearGradient> <linearGradient id="linearGradient925"> <stop style="stop-color:#11192c;stop-opacity:1" offset="0" id="stop921"/> <stop id="stop947" offset="0.49560151" style="stop-color:#213b9f;stop-opacity:1"/> <stop id="stop929" offset="0.98928428" style="stop-color:#233457;stop-opacity:1"/> <stop style="stop-color:#6d7f9c;stop-opacity:1" offset="1" id="stop923"/> </linearGradient> <linearGradient id="linearGradient917"> <stop style="stop-color:#131c30;stop-opacity:1" offset="0" id="stop913"/> <stop style="stop-color:#245cb6;stop-opacity:1" offset="1" id="stop915"/> </linearGradient> <linearGradient id="linearGradient893"> <stop style="stop-color:#151e34;stop-opacity:1" offset="0" id="stop889"/> <stop style="stop-color:#5555ff;stop-opacity:0.88235295" offset="1" id="stop891"/> </linearGradient> <linearGradient id="linearGradient885"> <stop style="stop-color:#000016;stop-opacity:1" offset="0" id="stop881"/> <stop id="stop2541" offset="0.60297942" style="stop-color:#000008;stop-opacity:1"/> <stop id="stop2539" offset="0.72758651" style="stop-color:#283a5b;stop-opacity:1"/> <stop style="stop-color:#d5e5ff;stop-opacity:1" offset="1" id="stop883"/> </linearGradient> <linearGradient id="linearGradient877"> <stop style="stop-color:#000008;stop-opacity:1" offset="0" id="stop873"/> <stop style="stop-color:#000016;stop-opacity:0.96482414" offset="1" id="stop875"/> </linearGradient> <linearGradient xlink:href="#linearGradient877" id="linearGradient879" x1="143.04706" y1="124.76471" x2="141.56471" y2="145.27058" gradientUnits="userSpaceOnUse" gradientTransform="matrix(1.7251588,0,0,1.7918946,-0.14836098,-119.53379)"/> <linearGradient xlink:href="#linearGradient885" id="linearGradient887" x1="40.270588" y1="90.917648" x2="45.211765" y2="156.88237" gradientUnits="userSpaceOnUse"/> <linearGradient xlink:href="#linearGradient893" id="linearGradient895" x1="172.49072" y1="79.072525" x2="172.69412" y2="118.58824" gradientUnits="userSpaceOnUse" gradientTransform="matrix(1.7251588,0,0,1.7333247,-0.14836098,-108.77468)"/> <linearGradient xlink:href="#linearGradient917" id="linearGradient919" x1="62.480251" y1="76.798088" x2="60.035294" y2="95.15834" gradientUnits="userSpaceOnUse"/> <linearGradient xlink:href="#linearGradient925" id="linearGradient927" x1="142.05882" y1="89.92942" x2="142.30588" y2="118.8353" gradientUnits="userSpaceOnUse" gradientTransform="matrix(1.7251588,0,0,1.7333247,-0.14836098,-108.77468)"/> <linearGradient xlink:href="#linearGradient1271" id="linearGradient1273" x1="151.94116" y1="19.023533" x2="150.21176" y2="183.56471" gradientUnits="userSpaceOnUse" gradientTransform="matrix(1.7251588,0,0,1.7333247,-0.14836098,-108.77468)"/> <filter style="color-interpolation-filters:sRGB" id="filter1593" x="-0.024" width="1.048" y="-0.024" height="1.048"> <feGaussianBlur stdDeviation="0.28164705" id="feGaussianBlur1595" result="fbSourceGraphic"/> <feColorMatrix result="fbSourceGraphicAlpha" in="fbSourceGraphic" values="0 0 0 -1 0 0 0 0 -1 0 0 0 0 -1 0 0 0 0 1 0" id="feColorMatrix1819"/> <feColorMatrix id="feColorMatrix1821" values="1 0 0 0 0 0 1 0 0 0 0 0 1 0 0 0 0 0 1 1 " in="fbSourceGraphic"/> <feColorMatrix id="feColorMatrix1823" type="hueRotate" values="334" result="colormatrix2"/> <feColorMatrix id="feColorMatrix1825" in="colormatrix2" values="-1 0 0 0 1 0 -1 0 0 1 0 0 -1 0 1 0 0 0 1 0 " result="colormatrix3"/> <feBlend in2="colormatrix2" id="feBlend1827" in="colormatrix3" mode="lighten" result="blend1"/> <feBlend in2="blend1" id="feBlend1829" mode="multiply" result="blend2"/> <feComposite in2="fbSourceGraphic" id="feComposite1831" operator="in" result="fbSourceGraphic"/> <feColorMatrix result="fbSourceGraphicAlpha" in="fbSourceGraphic" values="0 0 0 -1 0 0 0 0 -1 0 0 0 0 -1 0 0 0 0 1 0" id="feColorMatrix1911"/> <feColorMatrix id="feColorMatrix1913" values="4 -2.16 -2.16 0 3.65 -2.16 4 -2.16 0 3.65 -2.16 -2.16 4 0 3.65 0 0 0 1 0 " in="fbSourceGraphic" result="fbSourceGraphic"/> <feColorMatrix result="fbSourceGraphicAlpha" in="fbSourceGraphic" values="0 0 0 -1 0 0 0 0 -1 0 0 0 0 -1 0 0 0 0 1 0" id="feColorMatrix1915"/> <feColorMatrix id="feColorMatrix1917" values="4 -2.16 -2.16 0 3.65 -2.16 4 -2.16 0 3.65 -2.16 -2.16 4 0 3.65 0 0 0 1 0 " in="fbSourceGraphic"/> </filter> <filter style="color-interpolation-filters:sRGB" id="filter2131" x="-0.15000001" width="1.3" y="-0.15000001" height="1.3"> <feGaussianBlur stdDeviation="1.8066176" id="feGaussianBlur2133"/> </filter> <filter style="color-interpolation-filters:sRGB" id="filter2479" x="-0.48995602" width="1.979912" y="-0.48995602" height="1.979912"> <feGaussianBlur stdDeviation="7.0611305" id="feGaussianBlur2481"/> </filter> <filter style="color-interpolation-filters:sRGB" id="filter2499" x="-0.0086198952" width="1.0172398" y="-0.019741006" height="1.039482"> <feGaussianBlur stdDeviation="0.20142667" id="feGaussianBlur2501"/> </filter> <filter style="color-interpolation-filters:sRGB" id="filter2519" x="-0.00083705812" width="1.0016741" y="-0.002118615" height="1.0042372"> <feGaussianBlur stdDeviation="0.10380189" id="feGaussianBlur2521"/> </filter> <filter style="color-interpolation-filters:sRGB" id="filter2535" x="-0.0023251856" width="1.0046504" y="-0.0024797891" height="1.0049596"> <feGaussianBlur stdDeviation="0.12063609" id="feGaussianBlur2537"/> </filter> <filter style="color-interpolation-filters:sRGB" id="filter6536" x="-0.23188315" width="1.4637663" y="-1.3662928" height="3.7325856"> <feGaussianBlur stdDeviation="11.809433" id="feGaussianBlur6538"/> </filter> <linearGradient xlink:href="#linearGradient935" id="linearGradient894" gradientUnits="userSpaceOnUse" gradientTransform="matrix(1.7251588,0,0,1.7333247,-0.14836098,-108.77468)" x1="266.81012" y1="87.21917" x2="258.92792" y2="126.94086"/> <linearGradient xlink:href="#linearGradient943" id="linearGradient2356" gradientUnits="userSpaceOnUse" gradientTransform="matrix(1,0,0,0.91675869,0,6.0849336)" x1="35.107983" y1="81.118622" x2="32.571793" y2="99.345276"/> </defs> <metadata id="metadata5"> </metadata> <g id="layer1" transform="translate(0,-11.25001)"/> <g id="layer2" style="display:inline" transform="translate(0,75.74999)"> <rect style="opacity:1;fill:url(#linearGradient1273);fill-opacity:1;stroke:none;stroke-width:3.45847368;stroke-linecap:round;stroke-miterlimit:4;stroke-dasharray:none;stroke-opacity:1;paint-order:fill markers stroke" id="rect827" width="510.09225" height="284.80566" x="0.96116036" y="-75.173668"/> </g> <g id="layer5" transform="translate(0,75.74999)"> <circle style="opacity:1;fill:#e0f5ff;fill-opacity:1;stroke:none;stroke-width:0.93975902;stroke-linecap:round;stroke-miterlimit:4;stroke-dasharray:none;stroke-opacity:1;paint-order:fill markers stroke;filter:url(#filter2131)" id="path1277" cx="206.17059" cy="43.852947" r="14.452941" transform="matrix(2.4350289,0,0,2.4465549,-163.33821,-76.826793)"/> <circle r="14.082353" cy="46.447067" cx="208.27058" id="circle1459" style="opacity:1;fill:#e0f5ff;fill-opacity:1;stroke:none;stroke-width:0.91566259;stroke-linecap:round;stroke-miterlimit:4;stroke-dasharray:none;stroke-opacity:1;paint-order:fill markers stroke;filter:url(#filter1593)" transform="matrix(2.1782929,0,0,2.1886037,-114.98122,-71.028158)"/> </g> <g id="layer3" style="display:inline" transform="translate(0,75.74999)"> <path style="fill:url(#linearGradient919);fill-opacity:1;stroke:none;stroke-width:0.26458332px;stroke-linecap:butt;stroke-linejoin:miter;stroke-opacity:1;filter:url(#filter2535)" d="m 18.282353,74.858826 c 0,0 12.105881,2.470589 18.282351,0 6.176471,-2.470586 0,0 0,0 0,0 2.71765,1.482355 10.129412,-2.223529 7.411765,-3.705881 4.447061,-6.670588 7.658825,-5.188233 3.211764,1.482352 4.694118,0.494117 4.694118,0.494117 0,0 2.717647,3.458824 5.682353,4.447059 2.964704,0.988234 5.92941,3.211763 9.882352,5.435293 3.952941,2.223529 4.200001,-0.494118 4.200001,-0.494118 0,0 2.176965,1.038868 5.538852,1.579194 2.3174,0.372455 5.327488,0.508024 8.049383,-0.09684 6.670587,-1.482354 -0.741178,0 -0.741178,0 0,0 5.188236,1.976472 7.411765,1.482355 1.016333,-0.225853 2.806923,-2.026267 4.899893,-2.154758 2.48602,-0.15262 5.39865,1.343066 7.94717,0.672403 1.95411,-0.514239 4.55044,-1.964071 6.91564,-2.039316 3.31644,-0.105507 6.17847,1.298142 6.17847,1.298142 L 121.05882,183.81177 0.64314157,183.69706 0.49411765,73.376474 Z" id="path846" transform="matrix(1.7251588,0,0,1.7333247,-0.14836098,-108.77467)"/> <path style="fill:url(#linearGradient895);fill-opacity:1;stroke:none;stroke-width:0.45752725px;stroke-linecap:butt;stroke-linejoin:miter;stroke-opacity:1" d="m 179.71466,41.106921 c 0,0 13.63891,-10.705827 20.88456,-10.277597 7.24567,0.428235 14.91756,-4.282327 14.91756,-4.282327 0,0 7.24566,-0.856467 8.95053,-1.284704 1.70485,-0.428229 5.5408,-0.428229 5.5408,-0.428229 0,0 20.03215,-13.27523 23.44187,-10.705832 3.40972,2.569401 11.93404,2.569401 13.63889,2.997632 0.62596,0.157229 5.07825,-1.895893 10.00767,-0.15782 8.49634,2.99573 19.25008,10.50263 20.329,11.31564 0.61043,0.311026 2.08858,0.342655 2.7738,0.695462 0.52951,0.272622 0.25164,0.85902 0.82256,1.151253 0.90456,0.463009 1.85935,0.947714 2.8587,1.444867 0.39756,0.197769 0.71723,-0.177978 1.09774,-0.100102 0.43152,0.08834 0.91971,0.630105 1.29636,0.890115 0.24908,0.171945 0.62296,-0.43313 0.98728,-0.319029 0.2941,0.0921 0.58199,0.8902 0.793,1.101906 0.31984,0.320898 0.21822,1.146903 0.63379,1.333941 0.4277,0.192503 1.02383,-0.315063 1.8182,-0.23626 0.39226,0.03891 1.11772,0.621503 1.33584,0.715234 0.88016,0.378267 2.00477,0.330379 2.31443,1.267245 0.23692,0.716767 0.55285,0.945679 1.09247,1.022765 0.62759,0.08966 1.50464,-0.02607 2.08326,0.181513 0.53547,0.192099 1.075,-0.5285 1.61814,-0.345669 0.41355,0.139202 0.82918,1.18394 1.24675,1.317052 0.82352,0.262533 1.65446,-0.09301 2.49138,0.142219 0.9261,0.26029 1.8595,1.108007 2.79824,1.328691 0.40699,0.09568 0.73964,-0.48145 1.14846,-0.55287 0.54574,-0.09534 1.54503,0.67462 2.09338,0.775311 1.05379,0.193505 1.73499,0.734962 2.79432,0.862899 0.77779,0.09393 0.95357,-0.209515 1.73181,-0.155098 0.80402,0.05622 1.98445,-0.212388 2.78662,-0.202167 1.25871,0.01612 2.73974,0.654355 3.9864,0.544813 1.22804,-0.107902 2.448,-0.280382 3.65552,-0.524618 1.04602,-0.211572 2.08272,-0.476994 3.10722,-0.800933 5.65968,-1.78954 12.21393,-3.243235 17.33776,-6.867288 3.44474,-2.436435 5.77579,-7.027243 8.50958,-8.950351 0.43567,-0.306478 0.81677,-0.607974 1.1193,-1.063591 0.0729,-0.109862 0.0622,-0.36721 0.13777,-0.475997 0.0889,-0.127907 0.28059,-0.194019 0.36577,-0.322827 0.15068,-0.227883 0.33879,-0.328645 0.48458,-0.545696 0.39232,-0.58406 0.74053,-1.223398 1.21274,-1.495965 0.59158,-0.34147 1.10932,-0.42726 1.60685,-0.6145 0.14216,-0.0535 0.26337,-0.288941 0.40789,-0.327637 0.13618,-0.03646 0.37485,0.07449 0.50584,0.03641 0.17823,-0.05181 0.3119,-0.305671 0.48599,-0.341645 0.10209,-0.0211 0.30737,0.002 0.40563,-0.01498 0.17545,-0.0303 0.21857,-0.180357 0.38089,-0.19903 1.39971,-0.161018 2.41531,0.199675 2.41531,0.199675 v 0 0 l 0.78529,-1.252246 0.32349,-0.455478 0.38069,-0.356493 0.17608,-0.474717 0.57214,-0.225952 0.11775,-0.534147 0.57592,-0.11544 0.80419,-0.753084 0.42813,-0.09376 0.18861,-0.483777 v 0 l 0.37064,-0.347092 0.65348,-0.248431 4.42655,-4.5087441 9.37675,0.4282317 v 0 c 0,0 4.26216,-2.1411672 3.40973,0.8564654 l -0.85244,2.997634 c 0,0 1.70487,2.997633 8.95054,1.2847 2.14735,-0.50765 4.14422,-1.304533 5.65108,0.123955 1.29699,1.229523 0.41878,5.100387 1.64375,6.878117 0.97505,1.415052 1.00852,-1.680883 5.08634,1.200716 1.71551,1.212275 3.32246,2.277383 5.51989,1.646574 8.95051,-2.569389 28.98265,40.682135 54.55562,83.933706 25.57293,43.25155 25.74208,101.29243 25.74208,101.29243 l -355.20683,0.19882 z" id="path848"/> <path style="fill:url(#linearGradient927);fill-opacity:1;stroke:none;stroke-width:0.46376187px;stroke-linecap:butt;stroke-linejoin:miter;stroke-opacity:1" d="m 127.84499,42.391622 c 0,0 4.95571,-2.751331 10.21539,-3.265996 6.30627,-0.617075 13.785,0.951509 23.57451,0.484526 10.14662,-0.484018 15.5539,1.259699 19.53335,2.732611 3.06214,1.13339 5.92644,4.722507 14.11502,3.046492 4.6545,-0.95267 3.63113,-3.21268 6.97423,-4.364301 2.93124,-1.009741 8.98921,-0.310868 11.49431,-0.286368 2.80604,0.02744 3.10345,4.207278 5.57824,5.179552 2.9901,1.174727 8.41287,1.229857 10.85337,1.732292 5.72018,1.177636 12.45022,-0.714791 20.6283,-2.544352 1.93772,-0.433494 4.52324,-3.43573 6.69441,-3.837729 1.99406,-0.369209 5.74638,-4.44376 7.84287,-4.44376 4.2638,0 9.02279,1.875812 14.10927,1.379115 4.84596,-0.473209 9.98916,-3.337112 15.28456,-2.682878 7.41375,0.915949 16.2626,5.747375 20.52799,6.442561 2.95223,0.481169 5.26063,2.799699 10.66362,2.910141 3.3936,0.06937 9.2984,-2.288124 13.3225,-1.662759 3.31846,0.515704 7.95641,3.237034 11.20147,3.895699 8.85808,1.797975 16.86475,5.392667 20.86499,5.562749 3.51991,0.149655 5.70273,1.397656 7.37088,3.049417 3.10509,3.07462 4.42692,7.548234 9.26972,8.941115 7.44449,2.141159 5.69283,25.693991 5.69283,25.693991 l 0.43792,17.55757 -271.06676,-5.56705 z" id="path854"/> <path style="fill:url(#linearGradient894);fill-opacity:1;stroke:none;stroke-width:0.45752725px;stroke-linecap:butt;stroke-linejoin:miter;stroke-opacity:1" d="m 360.00389,98.061939 c 0,0 9.49017,-13.840009 15.89016,-21.82611 2.42126,-3.021342 5.49587,-3.00316 5.84684,-4.296116 0.37375,-1.376936 4.00755,-3.011893 6.16018,-7.179256 1.70053,-3.292119 1.67556,-8.969558 3.95112,-11.760059 4.69829,-5.761519 10.11884,-7.835207 14.18301,-8.03938 4.30253,-0.216144 4.71232,-7.131044 7.20908,-11.24985 2.44988,-4.041501 6.94081,-5.263493 15.80656,-8.020638 5.84802,-1.818672 7.63768,-5.549995 11.1671,-6.89671 7.27429,-2.775636 13.63316,-2.375982 19.94666,-2.952654 3.51358,-0.320927 9.48808,-1.760847 15.05289,-0.758409 9.28606,1.672783 18.19192,6.325439 18.19192,6.325439 0,0 0.28214,4.813106 2.48004,6.523706 3.65857,2.847423 10.36106,3.164944 13.28992,2.897422 4.68841,-0.42823 1.87404,178.802646 1.87404,178.802646 l -154.88546,-0.2294 z" id="path850"/> <path style="fill:url(#linearGradient2356);fill-opacity:1;stroke:none;stroke-width:0.25333196px;stroke-linecap:butt;stroke-linejoin:miter;stroke-opacity:1;filter:url(#filter2499)" d="m 11.364706,74.259427 c 0,0 12.847058,1.132466 14.329411,2.944414 1.482353,1.811946 3.458823,1.811946 5.188234,1.585453 1.729412,-0.226494 5.682351,-9.28623 5.682353,-4.076881 0,5.209346 5.188236,4.982854 5.188236,4.982854 0,0 10.129412,2.03844 8.4,2.264934 -1.729412,0.226492 2.964706,-0.67948 2.964706,-0.67948 l 7.905882,0.905972 2.717647,1.811948 L 63.494118,97.588238 7.6588235,89.43448 Z" id="path860" transform="matrix(1.7251588,0,0,1.7333247,-0.14836098,-108.77467)"/> <circle style="opacity:0.28000004;fill:#f0f5ff;fill-opacity:1;stroke:none;stroke-width:1.67664671;stroke-linecap:round;stroke-miterlimit:4;stroke-dasharray:none;stroke-opacity:1;paint-order:fill markers stroke;filter:url(#filter2479)" id="path2273" cx="196.90588" cy="83.505882" r="17.294117" transform="matrix(2.1080904,0,0,1.9625385,-83.647924,-106.07549)"/> </g> <g id="layer4" style="display:inline" transform="translate(0,75.74999)"> <path style="fill:url(#linearGradient887);fill-opacity:1;stroke:none;stroke-width:0.26458332px;stroke-linecap:butt;stroke-linejoin:miter;stroke-opacity:1;filter:url(#filter2519)" d="m 1.2352941,66.458827 c 0,0 -1.2352941,-3.458824 13.5882349,11.364706 14.823531,14.823529 -0.247059,-0.247058 -0.247059,-0.247058 0,0 10.376471,3.952941 13.341178,5.188236 2.964703,1.235292 1.729412,1.235292 4.447058,0.988235 2.717647,-0.24706 3.211764,0.247057 4.199998,0.494117 0.988238,0.247057 3.952942,0.247057 3.952942,0.247057 h 2.717649 l 3.458821,0.988237 2.223532,-0.988237 8.152939,-0.741174 c 0,0 13.835295,-2.47059 14.082353,-0.741178 0.24706,1.729412 0,0.988235 0.988234,2.717647 0.988238,1.729412 2.47059,2.22353 4.941179,3.211766 1.037187,0.414875 2.008584,1.955711 3.216653,2.60062 1.669559,0.891269 3.453934,0.858201 3.453934,0.858201 0,0 1.711956,-0.07639 3.258863,0.655637 2.633523,1.246227 5.726675,3.662988 5.882314,4.285542 0.247057,0.988234 6.917648,2.223529 6.917648,2.223529 0,0 7.905885,1.48235 7.905885,2.71765 0,1.23529 -1.2353,5.43529 5.43529,7.1647 6.67059,1.72941 8.89412,2.71765 8.89412,2.71765 0,0 -0.98824,0 1.23529,0.98824 2.22353,0.98823 19.76471,4.94117 23.22353,4.44705 3.45882,-0.49411 13.34118,0 15.5647,0.49412 2.22354,0.49412 8.40001,1.72941 11.61177,1.48235 3.21176,-0.24705 4.69412,-1.23529 9.63529,-1.23529 4.94118,0 22.97647,-3.21177 24.95295,-3.21177 1.97647,0 12.6,-1.97646 21.98823,2.96471 9.38823,4.94118 22.2353,3.21176 27.17647,0.49412 4.94118,-2.71765 7.65882,-1.2353 7.65882,-1.2353 0,0 33.10591,1.20372 31.37649,1.45078 -1.72939,0.24706 -0.14902,64.89334 -0.14902,64.89334 H 0.64314157 Z" id="path863" transform="matrix(1.7251588,0,0,1.7333247,-0.14836098,-108.77467)"/> <path style="opacity:0.87999998;fill:#d5e5ff;stroke:none;stroke-width:0.20868953px;stroke-linecap:butt;stroke-linejoin:miter;stroke-opacity:1;filter:url(#filter6536)" d="m 129.16241,116.5628 c 0,0 -46.22212,7.22395 -33.4739,8.60726 12.74821,1.38331 31.09091,3.99623 32.94656,5.68693 1.85565,1.69072 19.81963,-0.7685 22.25727,-0.3074 2.43763,0.4611 28.91131,3.38142 30.15758,3.22772 1.24627,-0.1537 4.91317,3.99623 24.95849,-3.53512 20.04533,-7.53135 2.75629,-10.91277 2.75629,-10.91277 0,0 -2.0478,-2.45922 -24.02505,-2.61292 -21.97725,-0.1537 -30.27841,-1.53701 -32.738,-1.69071 -2.45961,-0.1537 -13.62662,-2.92032 -22.83924,1.53701 z" id="path950" transform="matrix(1.5355634,0,0,1.1526505,57.333538,-48.496606)"/> <path style="fill:url(#linearGradient879);fill-opacity:1;stroke:none;stroke-width:0.46519306px;stroke-linecap:butt;stroke-linejoin:miter;stroke-opacity:1" d="m 0.70407036,65.516203 c 0,0 22.55906964,2.837106 46.03125464,8.411547 3.611661,0.857753 8.077192,2.644742 11.606659,3.583372 3.523512,0.937035 8.610523,-0.684994 11.823506,0.38055 13.452765,4.461458 22.235024,12.128783 27.715758,12.858618 7.848632,1.04516 27.886902,0.373184 40.777732,2.737231 14.41034,2.642696 23.61603,5.206803 26.99056,5.674143 6.39324,0.885406 15.34377,2.213516 19.60592,3.098936 4.26216,0.8854 15.76998,-4.667162 30.68755,-3.396947 4.59805,-1.938844 7.42522,-4.040466 11.90803,-5.588273 1.21821,-0.420609 3.54551,-0.0069 4.87687,-0.49242 3.15224,-1.149056 7.32874,-3.809969 10.94894,-4.378603 3.21615,-0.505161 8.02485,1.239499 11.45044,0.962809 1.47592,-0.119253 4.66015,0.207843 6.14026,0.1248 2.93825,-0.165014 5.02709,-0.900879 7.9503,-0.922684 1.21497,-0.0087 3.91781,1.722422 4.48647,0.652372 0,0 3.0633,-1.026285 4.26671,-0.985239 1.65028,0.05633 2.64954,1.206895 4.27249,1.310705 0.98532,0.0631 1.96487,0.134853 2.93775,0.215434 0.94844,0.07852 2.95612,-0.690955 3.89108,-0.595657 1.5975,0.16276 2.90355,-0.674228 4.36698,-0.391453 1.25,0.241556 2.26046,1.661132 3.46434,2.067318 1.78005,0.600581 3.78676,-0.242785 5.55732,0.169693 1.6656,0.388057 3.09772,2.035304 4.69216,2.480891 l 7.01494,-2.425945 v 0 l 4.67439,2.265785 v 0 l 5.5408,0.642335 c 2.40952,-0.521973 3.95417,-1.770869 5.58301,-2.063384 1.23251,-0.221328 2.2598,-0.413727 3.12607,-0.583142 6.28636,-1.229517 4.09201,-1.250022 10.28912,-2.349505 0,0 2.27851,-1.607035 7.66876,-1.344279 1.19772,0.05842 3.562,1.837428 4.94755,1.911873 1.27664,0.06863 3.2663,-0.926375 4.67919,-0.843261 1.55749,0.0917 5.08559,2.591475 3.39382,2.443918 0,0 1.67457,-2.401659 2.98177,-2.30969 1.44796,0.101917 3.99473,0.210442 5.50118,0.326073 1.48286,0.11388 5.95359,2.27337 5.57968,0.790448 -0.22846,-0.906062 3.96206,0.352302 5.963,0.56034 1.91095,0.198681 2.98876,2.265308 4.90052,2.500753 2.69678,0.332124 6.22109,-1.149325 8.85336,-0.749733 1.38009,0.209504 3.25026,-1.421147 4.59641,-1.194491 1.52388,0.256581 2.51818,2.372815 3.98334,2.650066 6.58753,1.246555 12.49979,2.695005 17.0017,4.282126 1.25534,0.442567 2.56912,-0.112614 3.5892,0.350147 0.81568,0.370036 1.38297,1.75462 2.02988,2.13599 1.2117,0.71432 2.48809,1.09831 3.78235,1.40419 1.31105,0.30984 2.64044,0.53954 3.93949,0.95126 3.83933,1.21682 7.61741,2.80128 11.51988,2.86881 1.06624,0.0185 2.46539,-2.01811 3.52203,-2.07287 1.81709,-0.0942 3.27928,1.72449 5.0433,1.43558 1.58858,-0.26018 4.77862,-1.8972 6.17886,-2.19716 4.99257,-1.06951 8.60062,-2.23617 9.4881,-2.38981 0.55184,-0.0955 2.67157,-0.30531 5.65683,-0.575594 0.83672,-0.07576 1.40527,-2.005234 2.36253,-2.089312 0.94973,-0.08342 2.28734,1.678625 3.32539,1.589339 2.71063,-0.233153 4.15806,-1.827083 7.09895,-2.071795 1.47694,-0.122896 4.4618,1.100051 5.89492,0.982037 7.80037,-0.642336 14.44702,-1.173715 14.44702,-1.173715 l -0.25708,112.48124 H 0.96116034 Z" id="path871"/> <path style="fill:#00000b;fill-opacity:1;stroke:none;stroke-width:0.45752725px;stroke-linecap:butt;stroke-linejoin:miter;stroke-opacity:1" d="m 1.5565018,109.62423 c 0,0 49.8672362,-3.42586 61.3750572,10.27761 11.507829,13.70346 15.769982,5.99526 25.99916,8.13641 10.229176,2.14119 60.522631,30.40456 71.604241,23.98108 11.0816,-6.42353 30.68752,3.42586 37.50698,3.42586 6.81944,0 24.7205,-10.2776 33.24482,-4.28234 8.52432,5.99526 29.8351,2.5694 45.17887,20.98343 15.34376,18.41403 21.31079,15.84462 33.67103,23.98105 12.36026,8.13643 17.90106,11.56229 17.90106,11.56229 l 0.42621,2.56939 -327.50276966,-0.62704 z" id="path865"/> <path style="fill:#000008;fill-opacity:1;stroke:none;stroke-width:0.45752725px;stroke-linecap:butt;stroke-linejoin:miter;stroke-opacity:1" d="m 509.17937,119.04536 c 0,0 -27.70398,0.85648 -42.62153,-5.99526 -14.91756,-6.85173 -28.13025,-5.56703 -51.14591,-6.85173 -23.01565,-1.28469 -49.01481,-8.564667 -57.11289,-1.28469 -8.09811,7.27994 -56.26048,3.85409 -59.67021,4.28233 -3.40972,0.42822 -37.50697,8.99288 -39.21184,8.99288 -1.70485,0 -32.81861,5.13881 -35.37589,5.99527 -2.5573,0.85647 -25.99916,2.14117 -30.68753,3.42586 -4.68838,1.2847 -39.63807,13.70348 -43.90022,3.8541 -4.26216,-9.84935 -13.21269,-8.56465 -16.1962,-4.71054 -2.98351,3.85408 -24.72051,11.56227 -24.72051,17.98578 0,6.42349 0.85243,3.42586 0,7.27997 -0.85243,3.85409 -3.40973,58.23968 -3.40973,58.23968 l 405.9265,-0.62704 z" id="path867"/> <path style="fill:none;stroke:none;stroke-width:0.45752725px;stroke-linecap:butt;stroke-linejoin:miter;stroke-opacity:1" d="M 50.14509,103.20074 Z" id="path869"/> </g> </svg>